{"asset":{"copyright":"","generator":"SharpGLTF 1.0.0-alpha0023","version":"2.0"},"accessors":[{"name":"POSITION","bufferView":0,"byteOffset":4608,"componentType":5126,"count":48,"max":[71.04000091552734,18.040000915527344,3.5],"min":[-0.03999999910593033,-0.03999999910593033,0],"type":"VEC3"},{"name":"NORMAL","bufferView":0,"byteOffset":4620,"componentType":5126,"count":48,"max":[1,1,1],"min":[-1,-1,-1],"type":"VEC3"},{"bufferView":1,"byteOffset":576,"componentType":5123,"count":96,"type":"SCALAR"},{"name":"POSITION","bufferView":0,"byteOffset":5760,"componentType":5126,"count":24,"max":[71,18,0.20000000298023224],"min":[0,0,0],"type":"VEC3"},{"name":"NORMAL","bufferView":0,"byteOffset":5772,"componentType":5126,"count":24,"max":[1,1,1],"min":[-1,-1,-1],"type":"VEC3"},{"bufferView":1,"byteOffset":768,"componentType":5123,"count":36,"type":"SCALAR"},{"name":"POSITION","bufferView":0,"componentType":5126,"count":96,"max":[7.900390148162842,18.000051498413086,3.5],"min":[5.500133514404297,-0.0000503230003232602,0],"type":"VEC3"},{"name":"NORMAL","bufferView":0,"byteOffset":12,"componentType":5126,"count":96,"max":[1,1,1],"min":[-1,-1,-1],"type":"VEC3"},{"bufferView":1,"componentType":5123,"count":144,"type":"SCALAR"},{"name":"POSITION","bufferView":0,"byteOffset":2304,"componentType":5126,"count":96,"max":[7.702203750610352,17.34499168395996,3.5],"min":[5.6991496086120605,0.6578938364982605,0],"type":"VEC3"},{"name":"NORMAL","bufferView":0,"byteOffset":2316,"componentType":5126,"count":96,"max":[0.9999936819076538,0.9999937415122986,1],"min":[-0.9999936819076538,-0.9999937415122986,-1],"type":"VEC3"},{"bufferView":1,"byteOffset":288,"componentType":5123,"count":144,"type":"SCALAR"},{"name":"POSITION","bufferView":0,"byteOffset":6336,"componentType":5126,"count":24,"max":[15.490483283996582,1.0199999809265137,3.5],"min":[7.881863117218018,-0.04388042911887169,0],"type":"VEC3"},{"name":"NORMAL","bufferView":0,"byteOffset":6348,"componentType":5126,"count":24,"max":[0.9917091131210327,0.9917095899581909,1],"min":[-0.9917091131210327,-0.9917095899581909,-1],"type":"VEC3"},{"bufferView":1,"byteOffset":840,"componentType":5123,"count":36,"type":"SCALAR"},{"name":"POSITION","bufferView":0,"byteOffset":6912,"componentType":5126,"count":24,"max":[4.4605889320373535,17.16080665588379,3],"min":[3.9700188636779785,0.6588596701622009,0],"type":"VEC3"},{"name":"NORMAL","bufferView":0,"byteOffset":6924,"componentType":5126,"count":24,"max":[0.9999849200248718,0.9999849796295166,1],"min":[-0.9999849200248718,-0.9999849200248718,-1],"type":"VEC3"},{"bufferView":1,"byteOffset":912,"componentType":5123,"count":36,"type":"SCALAR"},{"name":"POSITION","bufferView":0,"byteOffset":7488,"componentType":5126,"count":24,"max":[15.490483283996582,18.043880462646484,3.5],"min":[7.881863117218018,16.979999542236328,0],"type":"VEC3"},{"name":"NORMAL","bufferView":0,"byteOffset":7500,"componentType":5126,"count":24,"max":[0.9917093515396118,0.9917095899581909,1],"min":[-0.9917089343070984,-0.9917096495628357,-1],"type":"VEC3"},{"bufferView":1,"byteOffset":984,"componentType":5123,"count":36,"type":"SCALAR"}],"bufferViews":[{"buffer":0,"byteLength":8064,"byteStride":24,"target":34962},{"buffer":1,"byteLength":1056,"target":34963}],"buffers":[{"uri":"data:application/octet-stream;base64,","byteLength":10752},{"uri":"data:application/octet-stream;base64,","byteLength":1408}],"materials":[{"doubleSided":true,"pbrMetallicRoughness":{"baseColorFactor":[0.8392157,0.8392157,0.8392157,1],"metallicFactor":0.009999999776482582,"roughnessFactor":0.10000000149011612}},{"doubleSided":true,"pbrMetallicRoughness":{"baseColorFactor":[0.5882353,0.6627451,0.7294118,1],"metallicFactor":0.009999999776482582,"roughnessFactor":0.10000000149011612}}],"meshes":[{"name":"Wall","primitives":[{"attributes":{"POSITION":0,"NORMAL":1},"indices":2,"material":0}]},{"name":"Structure","primitives":[{"attributes":{"POSITION":3,"NORMAL":4},"indices":5,"material":1}]},{"name":"Array","primitives":[{"attributes":{"POSITION":6,"NORMAL":7},"indices":8,"material":0}]},{"name":"Array001","primitives":[{"attributes":{"POSITION":9,"NORMAL":10},"indices":11,"material":0}]},{"name":"Wall003","primitives":[{"attributes":{"POSITION":12,"NORMAL":13},"indices":14,"material":0}]},{"name":"Wall004","primitives":[{"attributes":{"POSITION":15,"NORMAL":16},"indices":17,"material":0}]},{"name":"mirror","primitives":[{"attributes":{"POSITION":18,"NORMAL":19},"indices":20,"material":0}]}],"nodes":[{"mesh":0},{"mesh":1},{"mesh":2},{"mesh":3},{"mesh":4},{"mesh":5},{"mesh":6}],"scene":0,"scenes":[{"nodes":[0,1,2,3,4,5,6]}]}
